<svg xmlns="http://www.w3.org/2000/svg" width="18" height="18" viewBox="0 0 18 18" fill="none"><path d="M14.5834 7.29183C14.5834 10.9326 10.5445 14.7242 9.18825 15.8953C9.0619 15.9903 8.9081 16.0416 8.75002 16.0416C8.59194 16.0416 8.43814 15.9903 8.31179 15.8953C6.95554 14.7242 2.91669 10.9326 2.91669 7.29183C2.91669 5.74473 3.53127 4.261 4.62523 3.16704C5.71919 2.07308 7.20292 1.4585 8.75002 1.4585C10.2971 1.4585 11.7808 2.07308 12.8748 3.16704C13.9688 4.261 14.5834 5.74473 14.5834 7.29183Z" stroke="#EC0000" stroke-width="1.45833" stroke-linecap="round" stroke-linejoin="round"></path><path d="M8.75 9.479C9.95812 9.479 10.9375 8.49963 10.9375 7.2915C10.9375 6.08338 9.95812 5.104 8.75 5.104C7.54188 5.104 6.5625 6.08338 6.5625 7.2915C6.5625 8.49963 7.54188 9.479 8.75 9.479Z" stroke="#EC0000" stroke-width="1.45833" stroke-linecap="round" stroke-linejoin="round"></path></svg>