<svg xmlns="http://www.w3.org/2000/svg" width="18" height="18" viewBox="0 0 18 18" fill="none"><g clip-path="url(#clip0_636_7336)"><path d="M11.6666 14.5835V2.91683C11.6666 2.53006 11.513 2.15912 11.2395 1.88563C10.966 1.61214 10.5951 1.4585 10.2083 1.4585H7.29165C6.90487 1.4585 6.53394 1.61214 6.26045 1.88563C5.98696 2.15912 5.83331 2.53006 5.83331 2.91683V14.5835" stroke="#EC0000" stroke-width="1.45833" stroke-linecap="round" stroke-linejoin="round"></path><path d="M14.5833 4.375H2.91665C2.11123 4.375 1.45831 5.02792 1.45831 5.83333V13.125C1.45831 13.9304 2.11123 14.5833 2.91665 14.5833H14.5833C15.3887 14.5833 16.0416 13.9304 16.0416 13.125V5.83333C16.0416 5.02792 15.3887 4.375 14.5833 4.375Z" stroke="#EC0000" stroke-width="1.45833" stroke-linecap="round" stroke-linejoin="round"></path></g><defs><clipPath id="clip0_636_7336"><rect width="17.5" height="17.5" fill="white"></rect></clipPath></defs></svg>