<svg xmlns="http://www.w3.org/2000/svg" width="18" height="18" viewBox="0 0 18 18" fill="none"><g clip-path="url(#clip0_636_7332)"><path d="M7.29169 8.75H10.2084" stroke="#EC0000" stroke-width="1.45833" stroke-linecap="round" stroke-linejoin="round"></path><path d="M7.29169 5.8335H10.2084" stroke="#EC0000" stroke-width="1.45833" stroke-linecap="round" stroke-linejoin="round"></path><path d="M10.2084 15.3123V13.1248C10.2084 12.7381 10.0547 12.3671 9.78122 12.0936C9.50773 11.8201 9.13679 11.6665 8.75002 11.6665C8.36325 11.6665 7.99231 11.8201 7.71882 12.0936C7.44533 12.3671 7.29169 12.7381 7.29169 13.1248V15.3123" stroke="#EC0000" stroke-width="1.45833" stroke-linecap="round" stroke-linejoin="round"></path><path d="M4.37498 7.2915H2.91665C2.52987 7.2915 2.15894 7.44515 1.88545 7.71864C1.61196 7.99213 1.45831 8.36306 1.45831 8.74984V13.854C1.45831 14.2408 1.61196 14.6117 1.88545 14.8852C2.15894 15.1587 2.52987 15.3123 2.91665 15.3123H14.5833C14.9701 15.3123 15.341 15.1587 15.6145 14.8852C15.888 14.6117 16.0416 14.2408 16.0416 13.854V6.56234C16.0416 6.17556 15.888 5.80463 15.6145 5.53114C15.341 5.25765 14.9701 5.104 14.5833 5.104H13.125" stroke="#EC0000" stroke-width="1.45833" stroke-linecap="round" stroke-linejoin="round"></path><path d="M4.375 15.3125V3.64583C4.375 3.25906 4.52865 2.88813 4.80214 2.61464C5.07563 2.34115 5.44656 2.1875 5.83333 2.1875H11.6667C12.0534 2.1875 12.4244 2.34115 12.6979 2.61464C12.9714 2.88813 13.125 3.25906 13.125 3.64583V15.3125" stroke="#EC0000" stroke-width="1.45833" stroke-linecap="round" stroke-linejoin="round"></path></g><defs><clipPath id="clip0_636_7332"><rect width="17.5" height="17.5" fill="white"></rect></clipPath></defs></svg>