<svg xmlns="http://www.w3.org/2000/svg" width="10" height="10" viewBox="0 0 10 10" fill="none"><path d="M0 4.90137C0.514974 4.7054 0.966146 4.52083 1.35352 4.34766C1.74089 4.16992 2.0804 3.98763 2.37207 3.80078C2.66374 3.60938 2.92122 3.40202 3.14453 3.17871C3.36784 2.9554 3.57292 2.69564 3.75977 2.39941C3.94661 2.10319 4.12663 1.76139 4.2998 1.37402C4.47754 0.982096 4.66439 0.524089 4.86035 0C5.05632 0.524089 5.24089 0.982096 5.41406 1.37402C5.5918 1.76139 5.77409 2.10319 5.96094 2.39941C6.14779 2.69564 6.35059 2.9554 6.56934 3.17871C6.79264 3.40202 7.05013 3.60938 7.3418 3.80078C7.63802 3.98763 7.97754 4.16992 8.36035 4.34766C8.74772 4.52083 9.19889 4.7054 9.71387 4.90137C9.19889 5.10189 8.74772 5.28874 8.36035 5.46191C7.97754 5.63509 7.63802 5.81738 7.3418 6.00879C7.05013 6.19564 6.79264 6.40072 6.56934 6.62402C6.35059 6.84733 6.14779 7.1071 5.96094 7.40332C5.77409 7.69954 5.5918 8.04362 5.41406 8.43555C5.24089 8.82292 5.05632 9.27865 4.86035 9.80273C4.65983 9.27865 4.47298 8.82292 4.2998 8.43555C4.12663 8.04362 3.94661 7.69954 3.75977 7.40332C3.57292 7.1071 3.36784 6.84733 3.14453 6.62402C2.92122 6.40072 2.66374 6.19564 2.37207 6.00879C2.0804 5.81738 1.74089 5.63509 1.35352 5.46191C0.966146 5.28418 0.514974 5.09733 0 4.90137Z" fill="#D32F2F"></path></svg>